<svg width="350" height="116" viewBox="0 0 350 116" fill="none" xmlns="http://www.w3.org/2000/svg">
    <path d="M0.24884 109.255H163.686V115.255H0.24884V109.255Z" fill="white" />
    <path
        d="M40 56.8163L50.6042 105.254H37.1875L35.375 96.8371H18.0417L13.3542 105.254H0L26.2708 56.8163H40ZM23.0417 87.2121H33.5208L30.8333 71.7955H30.6875L23.0417 87.2121Z"
        fill="white" />
    <path
        d="M67.9288 56.8163L86.3038 86.4413H86.4288L91.1163 56.8163H103.72L96.0746 105.254H83.4913L65.1163 75.5871H64.9913L60.3038 105.254H47.6996L55.3455 56.8163H67.9288Z"
        fill="white" />
    <path d="M117.696 56.8163L110.071 105.254H97.467L105.113 56.8163H117.696Z" fill="white" />
    <path
        d="M136.84 56.8163L142.631 82.7121L157.069 56.8163H169.59L169.277 105.254H156.694L157.59 77.3788H157.465L141.402 105.254H136.402L129.715 77.3788H129.59L121.11 105.254H108.59L124.444 56.8163H136.84Z"
        fill="white" />
    <path d="M155.499 109.255H324.139V115.255H155.499V109.255Z" fill="white" />
    <path
        d="M175.855 56.8163L182.918 86.233L199.314 56.8163H212.98L184.668 105.254H174.897L162.189 56.8163H175.855Z"
        fill="white" />
    <path
        d="M236.875 56.8163L235.208 67.483H220.229L218.958 75.5871H233.146L231.479 86.233H217.271L215.937 94.5871H230.896L229.229 105.254H201.667L209.312 56.8163H236.875Z"
        fill="white" />
    <path
        d="M256.969 56.8163C261.329 56.8163 264.829 57.8476 267.469 59.8996C270.105 61.9569 271.427 64.9153 271.427 68.7746C271.427 72.8892 270.204 76.5194 267.761 79.6705C265.313 82.8111 262.188 84.7226 258.386 85.3996L270.448 105.254H254.782L245.865 86.6288H245.719L242.782 105.254H230.177L237.823 56.8163H256.969ZM247.011 78.5246H248.74C251.698 78.5246 253.99 77.9101 255.615 76.6705C257.24 75.4361 258.052 73.6184 258.052 71.2121C258.052 68.0455 255.438 66.4621 250.219 66.4621H248.948L247.011 78.5246Z"
        fill="white" />
    <path
        d="M291.329 55.5455C296.506 55.5455 301.37 56.8736 305.912 59.5246L299.349 69.2955C297.084 67.1444 294.474 66.0663 291.516 66.0663C289.974 66.0663 288.568 66.5142 287.308 67.3996C286.042 68.2746 285.412 69.3528 285.412 70.6288C285.412 71.5767 285.86 72.3996 286.766 73.108C287.667 73.8163 289.313 74.5142 291.704 75.1913C294.954 76.1809 297.308 77.1392 298.766 78.0663C300.224 78.983 301.355 80.1184 302.162 81.4621C302.98 82.8111 303.391 84.4934 303.391 86.5038C303.391 89.4101 302.641 92.4934 301.141 95.7538C299.641 99.0038 297.188 101.598 293.787 103.525C290.381 105.441 286.349 106.447 281.683 106.545C275.693 106.545 270.297 104.707 265.495 101.025L272.495 90.858C275.839 94.2069 279.292 95.8788 282.849 95.8788C284.818 95.8788 286.48 95.3684 287.829 94.3371C289.172 93.3111 289.849 92.0038 289.849 90.4205C289.849 88.3684 287.792 86.7851 283.683 85.6705C278.709 84.2955 275.495 82.8319 274.037 81.2746C272.589 79.7069 271.87 77.6184 271.87 75.0038C271.87 69.5194 273.735 64.9101 277.474 61.1705C281.224 57.4205 285.839 55.5455 291.329 55.5455Z"
        fill="white" />
    <path
        d="M334.931 56.8163L333.264 67.483H318.285L317.014 75.5871H331.201L329.535 86.233H315.326L313.993 94.5871H328.951L327.285 105.254H299.722L307.368 56.8163H334.931Z"
        fill="white" />
    <mask id="mask0_7_164" style="mask-type:luminance" maskUnits="userSpaceOnUse" x="274" y="0"
        width="76" height="60">
        <path d="M274.41 0H349.077V60H274.41V0Z" fill="white" />
    </mask>
    <g mask="url(#mask0_7_164)">
        <mask id="mask1_7_164" style="mask-type:luminance" maskUnits="userSpaceOnUse" x="271" y="-3"
            width="79" height="63">
            <path
                d="M276.749 -2.49481L349.363 4.98435L343.728 59.6927L271.113 52.2135L276.749 -2.49481Z"
                fill="white" />
        </mask>
        <g mask="url(#mask1_7_164)">
            <mask id="mask2_7_164" style="mask-type:luminance" maskUnits="userSpaceOnUse" x="271"
                y="-3" width="79" height="63">
                <path
                    d="M276.749 -2.49481L349.363 4.98435L343.728 59.6927L271.113 52.2135L276.749 -2.49481Z"
                    fill="white" />
            </mask>
            <g mask="url(#mask2_7_164)">
                <path
                    d="M282.988 52.7448C284.254 52.625 286.78 52.3541 289.332 52.1979C291.879 52.0416 294.452 52 297.051 52.0677C299.65 52.1406 302.275 52.3177 304.244 52.5364C306.207 52.75 307.504 52.9166 308.759 53.1094C310.014 53.2969 311.233 53.5052 312.41 53.7239C313.587 53.9427 314.723 54.1823 316.108 54.4844C317.494 54.7864 319.155 55.1719 320.863 55.5937C322.572 56.0208 324.332 56.4791 326.139 56.9896C327.947 57.4948 329.801 58.0469 331.238 58.4531C332.676 58.8541 333.327 58.9844 333.926 59.0729C334.525 59.1614 335.129 59.2083 335.994 59.1198C336.853 59.0312 338.598 58.0989 339.353 55.0416C340.103 51.9844 340.369 48.9166 341.035 45.2448C341.707 41.5729 342.723 37.3021 344.113 32.4427C345.504 27.5885 347.301 22.1614 347.697 17.1719C348.087 12.1771 345.525 11.6354 344.671 12.0156C343.811 12.401 343.41 12.7291 343.061 13.0781C342.712 13.4271 342.348 13.8281 341.79 14.4687C341.238 15.1094 340.249 16.2708 338.91 17.8594C337.572 19.4479 335.874 21.4583 333.832 23.9062C331.785 26.3594 329.369 29.2239 327.962 30.9062C326.556 32.5885 326.421 32.7291 326.379 32.7708C326.337 32.8177 326.436 32.776 326.728 32.7187C327.02 32.6614 327.52 32.5521 327.681 32.5989C327.848 32.6458 327.796 32.5937 327.556 32.3125C327.316 32.0312 326.957 31.5312 326.525 30.8333C326.098 30.1302 325.608 29.2344 325.186 28.3854C324.764 27.5364 324.27 26.401 323.504 24.5364C322.738 22.6719 321.744 20.0937 320.499 16.8125C319.259 13.5312 317.775 9.55727 316.848 7.0781C315.921 4.59894 315.707 4.15102 315.441 3.6979C315.176 3.24998 314.816 2.78123 314.27 2.30206C313.728 1.81769 312.889 1.39061 312.124 1.22915C311.358 1.06248 309.77 1.3229 308.874 1.92185C307.973 2.52081 307.499 3.08331 307.171 3.60935C306.843 4.13019 306.572 4.65623 304.181 10.5104C301.79 16.3646 297.593 27.5208 297.441 27.8906C297.29 28.2604 297.155 28.5677 297.056 28.7604C296.962 28.9583 296.931 29.0208 297.04 28.8958C297.15 28.7708 300.691 27.6771 300.603 27.5625C300.52 27.4427 299.207 26.5 297.191 24.8489C295.171 23.1927 292.509 20.875 289.223 17.9166C285.941 14.9531 282.014 11.3489 281.551 11C281.087 10.6458 280.566 10.3698 279.822 10.1771C279.077 9.98956 278.098 10.0521 277.191 10.5156C276.28 10.9739 275.103 13.4948 275.348 15.8385C275.598 18.1823 276.181 20.9844 277.077 24.3073C277.968 27.625 279.181 31.4844 280.395 34.5885C281.613 37.6875 285.431 36.5885 284.816 34.4687C284.816 34.4687 284.191 30.0885 283.441 26.4635C282.686 22.8385 282.191 19.8489 281.968 17.5312C281.744 15.2135 281.77 13.6041 280.957 14.9844C280.145 16.3594 279.374 16.6302 278.723 16.6094C278.072 16.5937 277.702 16.4635 277.551 16.3802C277.4 16.3021 277.264 16.1875 280.749 19.8594C284.233 23.5312 287.207 26.5312 289.665 28.875C292.124 31.2187 294.093 32.9271 295.738 34.0885C297.379 35.2448 299.337 35.9166 301.468 34.9948C303.598 34.0677 303.936 33.5937 304.212 33.1302C304.483 32.6719 304.728 32.1927 304.962 31.6719C305.202 31.1562 305.473 30.5104 309.561 19.3073C313.655 8.10935 313.723 7.91665 313.785 7.77081C313.843 7.62498 313.811 7.65102 313.535 7.91144C313.259 8.16665 312.447 8.59373 311.457 8.65623C310.468 8.71873 310.145 8.60935 309.686 8.3229C309.228 8.04165 309.04 7.84373 308.994 7.77081C308.947 7.6979 308.988 7.74477 309.061 7.86456C309.134 7.98956 311.077 12.3073 312.738 15.9687C314.395 19.625 315.77 22.6146 316.848 24.9427C317.926 27.2708 318.728 28.9427 319.27 29.9739C319.816 31.0104 320.452 32.1146 321.066 33.0937C321.681 34.0677 322.28 34.9062 322.889 35.6198C323.494 36.3333 324.16 36.9375 324.889 37.375C325.624 37.8125 326.337 38.0416 327.15 37.9531C327.962 37.8646 328.603 37.651 329.108 37.3541C329.608 37.0573 330.025 36.7187 330.41 36.3385C330.79 35.9583 333.587 32.9271 335.999 30.3125C338.405 27.6979 340.452 25.5156 342.113 23.7396C343.775 21.9687 345.066 20.625 345.973 19.6979C346.884 18.776 347.233 18.4166 347.478 18.1927C347.718 17.9687 347.837 17.8698 347.712 17.9583C347.587 18.0416 346.681 18.3541 344.858 16.0989C343.035 13.8437 340.535 19.5677 338.457 24.8854C336.374 30.1979 334.77 35.0625 333.671 39.4896C332.572 43.9166 331.962 47.9114 331.827 51.3541C331.691 54.8021 333.093 51.7708 334.165 51.3073C335.238 50.8385 335.415 50.8385 335.259 50.8281C335.103 50.8177 334.738 50.7656 334.316 50.6979C333.895 50.625 331.994 50.1354 330.051 49.6666C328.103 49.1979 326.207 48.776 324.353 48.3958C322.499 48.0156 320.686 47.6823 318.931 47.4062C317.176 47.125 315.968 46.9531 314.718 46.8021C313.462 46.6458 312.176 46.5156 310.858 46.401C309.54 46.2864 308.186 46.1875 306.78 46.1041C305.369 46.026 302.546 45.9844 299.749 46.0573C296.947 46.125 294.191 46.3281 291.478 46.651C288.764 46.9687 286.098 47.4219 284.77 47.7448C282.16 48.3073 284.27 52.5052 282.988 52.7448Z"
                    fill="white" />
            </g>
        </g>
    </g>
</svg>