<svg xmlns="http://www.w3.org/2000/svg" xmlns:xlink="http://www.w3.org/1999/xlink" width="500"
    zoomAndPan="magnify" viewBox="0 0 375 374.999991" height="500"
    preserveAspectRatio="xMidYMid meet" version="1.0">
    <defs>
        <g />
        <clipPath id="00bee39476">
            <path d="M 261 142 L 317 142 L 317 187 L 261 187 Z M 261 142 " clip-rule="nonzero" />
        </clipPath>
        <clipPath id="91e6f7beaf">
            <path
                d="M 262.753906 140.128906 L 317.214844 145.738281 L 312.988281 186.769531 L 258.527344 181.160156 Z M 262.753906 140.128906 "
                clip-rule="nonzero" />
        </clipPath>
        <clipPath id="043cd2b7f6">
            <path
                d="M 262.753906 140.128906 L 317.214844 145.738281 L 312.988281 186.769531 L 258.527344 181.160156 Z M 262.753906 140.128906 "
                clip-rule="nonzero" />
        </clipPath>
    </defs>
    <rect x="-37.5" width="450" fill="#ffffff" y="-37.499999" height="449.999989" fill-opacity="1" />
    <rect x="-37.5" width="450" fill="#000000" y="-37.499999" height="449.999989" fill-opacity="1" />
    <path fill="#ffffff"
        d="M 55.378906 223.941406 L 177.957031 223.941406 L 177.957031 228.441406 L 55.378906 228.441406 Z M 55.378906 223.941406 "
        fill-opacity="1" fill-rule="nonzero" />
    <g fill="#ffffff" fill-opacity="1">
        <g transform="translate(55.379775, 220.940347)">
            <g>
                <path
                    d="M 29.8125 -36.328125 L 37.765625 0 L 27.703125 0 L 26.34375 -6.3125 L 13.34375 -6.3125 L 9.828125 0 L -0.1875 0 L 19.515625 -36.328125 Z M 17.09375 -13.53125 L 24.953125 -13.53125 L 22.9375 -25.09375 L 22.828125 -25.09375 Z M 17.09375 -13.53125 " />
            </g>
        </g>
    </g>
    <g fill="#ffffff" fill-opacity="1">
        <g transform="translate(87.888898, 220.940347)">
            <g>
                <path
                    d="M 18.25 -36.328125 L 32.03125 -14.109375 L 32.125 -14.109375 L 35.640625 -36.328125 L 45.09375 -36.328125 L 39.359375 0 L 29.921875 0 L 16.140625 -22.25 L 16.046875 -22.25 L 12.53125 0 L 3.078125 0 L 8.8125 -36.328125 Z M 18.25 -36.328125 " />
            </g>
        </g>
    </g>
    <g fill="#ffffff" fill-opacity="1">
        <g transform="translate(125.214428, 220.940347)">
            <g>
                <path
                    d="M 18.25 -36.328125 L 12.53125 0 L 3.078125 0 L 8.8125 -36.328125 Z M 18.25 -36.328125 " />
            </g>
        </g>
    </g>
    <g fill="#ffffff" fill-opacity="1">
        <g transform="translate(135.712585, 220.940347)">
            <g>
                <path
                    d="M 22.109375 -36.328125 L 26.453125 -16.90625 L 37.28125 -36.328125 L 46.671875 -36.328125 L 46.4375 0 L 37 0 L 37.671875 -20.90625 L 37.578125 -20.90625 L 25.53125 0 L 21.78125 0 L 16.765625 -20.90625 L 16.671875 -20.90625 L 10.3125 0 L 0.921875 0 L 12.8125 -36.328125 Z M 22.109375 -36.328125 " />
            </g>
        </g>
    </g>
    <path fill="#000000"
        d="M 171.816406 223.941406 L 298.296875 223.941406 L 298.296875 228.441406 L 171.816406 228.441406 Z M 171.816406 223.941406 "
        fill-opacity="1" fill-rule="nonzero" />
    <path stroke-linecap="butt" transform="matrix(0.75, 0, 0, 0.75, 171.80652, 172.94035)"
        fill="none" stroke-linejoin="miter"
        d="M 20.367349 15.574326 L 27.440266 44.996203 L 43.815267 15.574326 L 57.502768 15.574326 L 29.185058 64.001412 L 19.414224 64.001412 L 6.695473 15.574326 Z M 81.388186 15.574326 L 79.711103 26.240993 L 64.752769 26.240993 L 63.46631 34.329535 L 77.65902 34.329535 L 75.997561 44.996203 L 61.789227 44.996203 L 60.440268 53.334745 L 75.414228 53.334745 L 73.737144 64.001412 L 46.185059 64.001412 L 53.836101 15.574326 Z M 101.481938 15.574326 C 105.85173 15.574326 109.35173 16.605576 111.987147 18.668076 C 114.622564 20.714951 115.935064 23.662868 115.935064 27.511826 C 115.935064 31.62641 114.716314 35.261827 112.268397 38.407661 C 109.830897 41.553494 106.705896 43.470161 102.893396 44.147244 L 114.966314 64.001412 L 99.299646 64.001412 L 90.37777 45.371203 L 90.237145 45.371203 L 87.289229 64.001412 L 74.695478 64.001412 L 82.34652 15.574326 Z M 91.523604 37.277452 L 93.263187 37.277452 C 96.221521 37.277452 98.513188 36.65766 100.132979 35.412869 C 101.763188 34.168077 102.575688 32.350368 102.575688 29.954535 C 102.575688 26.787868 99.966313 25.204535 94.737146 25.204535 L 93.450687 25.204535 Z M 135.830898 14.293076 C 141.01319 14.293076 145.877774 15.615992 150.414233 18.272243 L 143.856941 28.027452 C 141.591315 25.886826 138.98194 24.81391 136.034023 24.81391 C 134.487148 24.81391 133.080898 25.25141 131.815273 26.131618 C 130.560065 27.006618 129.935065 28.089952 129.935065 29.37641 C 129.935065 30.319118 130.382981 31.142035 131.284023 31.855577 C 132.179856 32.56391 133.82569 33.261827 136.221523 33.93891 C 139.471524 34.923285 141.82569 35.871202 143.278816 36.793077 C 144.742357 37.714952 145.877774 38.845161 146.679857 40.194119 C 147.497566 41.543077 147.903816 43.225369 147.903816 45.246203 C 147.903816 48.152453 147.159024 51.235786 145.664232 54.496203 C 144.169441 57.746203 141.716315 60.339954 138.310065 62.277454 C 134.898607 64.199329 130.862148 65.204537 126.200689 65.287871 C 120.211106 65.287871 114.815272 63.444121 110.018397 59.767037 L 117.013189 49.605578 C 120.356939 52.949328 123.810064 54.621203 127.362148 54.621203 C 129.32569 54.621203 130.987148 54.110787 132.330898 53.084745 C 133.679857 52.053495 134.35694 50.746203 134.35694 49.168078 C 134.35694 47.105578 132.299648 45.522244 128.195481 44.412869 C 123.226731 43.043078 120.013189 41.579536 118.549647 40.022244 C 117.096522 38.454536 116.367355 36.365994 116.367355 33.75141 C 116.367355 28.272243 118.242356 23.662868 121.981939 19.918076 C 125.737148 16.168076 130.351731 14.293076 135.830898 14.293076 Z M 179.445485 15.574326 L 177.768401 26.240993 L 162.804858 26.240993 L 161.523608 34.329535 L 175.711109 34.329535 L 174.049651 44.996203 L 159.841317 44.996203 L 158.497567 53.334745 L 173.471526 53.334745 L 171.794442 64.001412 L 144.242357 64.001412 L 151.893399 15.574326 Z M 179.445485 15.574326 "
        stroke="#000000" stroke-width="6.504209" stroke-opacity="1" stroke-miterlimit="4" />
    <path fill="#ffffff"
        d="M 171.816406 223.941406 L 298.296875 223.941406 L 298.296875 228.441406 L 171.816406 228.441406 Z M 171.816406 223.941406 "
        fill-opacity="1" fill-rule="nonzero" />
    <g fill="#ffffff" fill-opacity="1">
        <g transform="translate(171.818239, 220.940347)">
            <g>
                <path
                    d="M 15.265625 -36.328125 L 20.5625 -14.265625 L 32.859375 -36.328125 L 43.109375 -36.328125 L 21.875 0 L 14.546875 0 L 5.015625 -36.328125 Z M 15.265625 -36.328125 " />
            </g>
        </g>
    </g>
    <g fill="#ffffff" fill-opacity="1">
        <g transform="translate(203.364091, 220.940347)">
            <g>
                <path
                    d="M 29.484375 -36.328125 L 28.234375 -28.328125 L 17 -28.328125 L 16.046875 -22.25 L 26.6875 -22.25 L 25.4375 -14.265625 L 14.78125 -14.265625 L 13.78125 -8 L 25 -8 L 23.75 0 L 3.078125 0 L 8.8125 -36.328125 Z M 29.484375 -36.328125 " />
            </g>
        </g>
    </g>
    <g fill="#ffffff" fill-opacity="1">
        <g transform="translate(224.747314, 220.940347)">
            <g>
                <path
                    d="M 23.171875 -36.328125 C 26.441406 -36.328125 29.066406 -35.554688 31.046875 -34.015625 C 33.023438 -32.472656 34.015625 -30.253906 34.015625 -27.359375 C 34.015625 -24.273438 33.097656 -21.550781 31.265625 -19.1875 C 29.429688 -16.832031 27.085938 -15.398438 24.234375 -14.890625 L 33.28125 0 L 21.53125 0 L 14.84375 -13.96875 L 14.734375 -13.96875 L 12.53125 0 L 3.078125 0 L 8.8125 -36.328125 Z M 15.703125 -20.046875 L 17 -20.046875 C 19.21875 -20.046875 20.9375 -20.507812 22.15625 -21.4375 C 23.375 -22.363281 23.984375 -23.726562 23.984375 -25.53125 C 23.984375 -27.90625 22.023438 -29.09375 18.109375 -29.09375 L 17.15625 -29.09375 Z M 15.703125 -20.046875 " />
            </g>
        </g>
    </g>
    <g fill="#ffffff" fill-opacity="1">
        <g transform="translate(252.391872, 220.940347)">
            <g>
                <path
                    d="M 21.296875 -37.28125 C 25.179688 -37.28125 28.828125 -36.285156 32.234375 -34.296875 L 27.3125 -26.96875 C 25.613281 -28.582031 23.65625 -29.390625 21.4375 -29.390625 C 20.28125 -29.390625 19.226562 -29.054688 18.28125 -28.390625 C 17.332031 -27.734375 16.859375 -26.925781 16.859375 -25.96875 C 16.859375 -25.257812 17.195312 -24.640625 17.875 -24.109375 C 18.550781 -23.578125 19.785156 -23.054688 21.578125 -22.546875 C 24.015625 -21.804688 25.78125 -21.085938 26.875 -20.390625 C 27.96875 -19.703125 28.816406 -18.851562 29.421875 -17.84375 C 30.035156 -16.832031 30.34375 -15.570312 30.34375 -14.0625 C 30.34375 -11.882812 29.78125 -9.570312 28.65625 -7.125 C 27.53125 -4.6875 25.691406 -2.742188 23.140625 -1.296875 C 20.585938 0.140625 17.5625 0.894531 14.0625 0.96875 C 9.570312 0.96875 5.523438 -0.410156 1.921875 -3.171875 L 7.171875 -10.796875 C 9.679688 -8.285156 12.269531 -7.03125 14.9375 -7.03125 C 16.414062 -7.03125 17.660156 -7.414062 18.671875 -8.1875 C 19.679688 -8.957031 20.1875 -9.9375 20.1875 -11.125 C 20.1875 -12.664062 18.644531 -13.851562 15.5625 -14.6875 C 11.832031 -15.71875 9.421875 -16.816406 8.328125 -17.984375 C 7.242188 -19.160156 6.703125 -20.726562 6.703125 -22.6875 C 6.703125 -26.800781 8.101562 -30.257812 10.90625 -33.0625 C 13.71875 -35.875 17.179688 -37.28125 21.296875 -37.28125 Z M 21.296875 -37.28125 " />
            </g>
        </g>
    </g>
    <g fill="#ffffff" fill-opacity="1">
        <g transform="translate(276.905768, 220.940347)">
            <g>
                <path
                    d="M 29.484375 -36.328125 L 28.234375 -28.328125 L 17 -28.328125 L 16.046875 -22.25 L 26.6875 -22.25 L 25.4375 -14.265625 L 14.78125 -14.265625 L 13.78125 -8 L 25 -8 L 23.75 0 L 3.078125 0 L 8.8125 -36.328125 Z M 29.484375 -36.328125 " />
            </g>
        </g>
    </g>
    <g clip-path="url(#00bee39476)">
        <g clip-path="url(#91e6f7beaf)">
            <g clip-path="url(#043cd2b7f6)">
                <path fill="#ffffff"
                    d="M 267.433594 181.558594 C 268.382812 181.46875 270.277344 181.265625 272.191406 181.148438 C 274.101562 181.03125 276.03125 181 277.980469 181.050781 C 279.929688 181.105469 281.898438 181.238281 283.375 181.402344 C 284.847656 181.5625 285.820312 181.6875 286.761719 181.832031 C 287.703125 181.972656 288.617188 182.128906 289.5 182.292969 C 290.382812 182.457031 291.234375 182.636719 292.273438 182.863281 C 293.3125 183.089844 294.558594 183.378906 295.839844 183.695312 C 297.121094 184.015625 298.441406 184.359375 299.796875 184.742188 C 301.152344 185.121094 302.542969 185.535156 303.621094 185.839844 C 304.699219 186.140625 305.1875 186.238281 305.636719 186.304688 C 306.085938 186.371094 306.539062 186.40625 307.1875 186.339844 C 307.832031 186.273438 309.140625 185.574219 309.707031 183.28125 C 310.269531 180.988281 310.46875 178.6875 310.96875 175.933594 C 311.472656 173.179688 312.234375 169.976562 313.277344 166.332031 C 314.320312 162.691406 315.667969 158.621094 315.964844 154.878906 C 316.257812 151.132812 314.335938 150.726562 313.695312 151.011719 C 313.050781 151.300781 312.75 151.546875 312.488281 151.808594 C 312.226562 152.070312 311.953125 152.371094 311.535156 152.851562 C 311.121094 153.332031 310.378906 154.203125 309.375 155.394531 C 308.371094 156.585938 307.097656 158.09375 305.566406 159.929688 C 304.03125 161.769531 302.21875 163.917969 301.164062 165.179688 C 300.109375 166.441406 300.007812 166.546875 299.976562 166.578125 C 299.945312 166.613281 300.019531 166.582031 300.238281 166.539062 C 300.457031 166.496094 300.832031 166.414062 300.953125 166.449219 C 301.078125 166.484375 301.039062 166.445312 300.859375 166.234375 C 300.679688 166.023438 300.410156 165.648438 300.085938 165.125 C 299.765625 164.597656 299.398438 163.925781 299.082031 163.289062 C 298.765625 162.652344 298.394531 161.800781 297.820312 160.402344 C 297.246094 159.003906 296.5 157.070312 295.566406 154.609375 C 294.636719 152.148438 293.523438 149.167969 292.828125 147.308594 C 292.132812 145.449219 291.972656 145.113281 291.773438 144.773438 C 291.574219 144.4375 291.304688 144.085938 290.894531 143.726562 C 290.488281 143.363281 289.859375 143.042969 289.285156 142.921875 C 288.710938 142.796875 287.519531 142.992188 286.847656 143.441406 C 286.171875 143.890625 285.816406 144.3125 285.570312 144.707031 C 285.324219 145.097656 285.121094 145.492188 283.328125 149.882812 C 281.535156 154.273438 278.386719 162.640625 278.273438 162.917969 C 278.160156 163.195312 278.058594 163.425781 277.984375 163.570312 C 277.914062 163.71875 277.890625 163.765625 277.972656 163.671875 C 278.054688 163.578125 280.710938 162.757812 280.644531 162.671875 C 280.582031 162.582031 279.597656 161.875 278.085938 160.636719 C 276.570312 159.394531 274.574219 157.65625 272.109375 155.4375 C 269.648438 153.214844 266.703125 150.511719 266.355469 150.25 C 266.007812 149.984375 265.617188 149.777344 265.058594 149.632812 C 264.5 149.492188 263.765625 149.539062 263.085938 149.886719 C 262.402344 150.230469 261.519531 152.121094 261.703125 153.878906 C 261.890625 155.636719 262.328125 157.738281 263 160.230469 C 263.667969 162.71875 264.578125 165.613281 265.488281 167.941406 C 266.402344 170.265625 269.265625 169.441406 268.804688 167.851562 C 268.804688 167.851562 268.335938 164.566406 267.773438 161.847656 C 267.207031 159.128906 266.835938 156.886719 266.667969 155.148438 C 266.5 153.410156 266.519531 152.203125 265.910156 153.238281 C 265.300781 154.269531 264.722656 154.472656 264.234375 154.457031 C 263.746094 154.445312 263.46875 154.347656 263.355469 154.285156 C 263.242188 154.226562 263.140625 154.140625 265.753906 156.894531 C 268.367188 159.648438 270.597656 161.898438 272.441406 163.65625 C 274.285156 165.414062 275.761719 166.695312 276.996094 167.566406 C 278.226562 168.433594 279.695312 168.9375 281.292969 168.246094 C 282.890625 167.550781 283.144531 167.195312 283.351562 166.847656 C 283.554688 166.503906 283.738281 166.144531 283.914062 165.753906 C 284.09375 165.367188 284.296875 164.882812 287.363281 156.480469 C 290.433594 148.082031 290.484375 147.9375 290.53125 147.828125 C 290.574219 147.71875 290.550781 147.738281 290.34375 147.933594 C 290.136719 148.125 289.527344 148.445312 288.785156 148.492188 C 288.042969 148.539062 287.800781 148.457031 287.457031 148.242188 C 287.113281 148.03125 286.972656 147.882812 286.9375 147.828125 C 286.902344 147.773438 286.933594 147.808594 286.988281 147.898438 C 287.042969 147.992188 288.5 151.230469 289.746094 153.976562 C 290.988281 156.71875 292.019531 158.960938 292.828125 160.707031 C 293.636719 162.453125 294.238281 163.707031 294.644531 164.480469 C 295.054688 165.257812 295.53125 166.085938 295.992188 166.820312 C 296.453125 167.550781 296.902344 168.179688 297.359375 168.714844 C 297.8125 169.25 298.3125 169.703125 298.859375 170.03125 C 299.410156 170.359375 299.945312 170.53125 300.554688 170.464844 C 301.164062 170.398438 301.644531 170.238281 302.023438 170.015625 C 302.398438 169.792969 302.710938 169.539062 303 169.253906 C 303.285156 168.96875 305.382812 166.695312 307.191406 164.734375 C 308.996094 162.773438 310.53125 161.136719 311.777344 159.804688 C 313.023438 158.476562 313.992188 157.46875 314.671875 156.773438 C 315.355469 156.082031 315.617188 155.8125 315.800781 155.644531 C 315.980469 155.476562 316.070312 155.402344 315.976562 155.46875 C 315.882812 155.53125 315.203125 155.765625 313.835938 154.074219 C 312.46875 152.382812 310.59375 156.675781 309.035156 160.664062 C 307.472656 164.648438 306.269531 168.296875 305.445312 171.617188 C 304.621094 174.9375 304.164062 177.933594 304.0625 180.515625 C 303.960938 183.101562 305.011719 180.828125 305.816406 180.480469 C 306.621094 180.128906 306.753906 180.128906 306.636719 180.121094 C 306.519531 180.113281 306.246094 180.074219 305.929688 180.023438 C 305.613281 179.96875 304.1875 179.601562 302.730469 179.25 C 301.269531 178.898438 299.847656 178.582031 298.457031 178.296875 C 297.066406 178.011719 295.707031 177.761719 294.390625 177.554688 C 293.074219 177.34375 292.167969 177.214844 291.230469 177.101562 C 290.289062 176.984375 289.324219 176.886719 288.335938 176.800781 C 287.347656 176.714844 286.332031 176.640625 285.277344 176.578125 C 284.21875 176.519531 282.101562 176.488281 280.003906 176.542969 C 277.902344 176.59375 275.835938 176.746094 273.800781 176.988281 C 271.765625 177.226562 269.765625 177.566406 268.769531 177.808594 C 266.8125 178.230469 268.394531 181.378906 267.433594 181.558594 Z M 267.433594 181.558594 "
                    fill-opacity="1" fill-rule="nonzero" />
            </g>
        </g>
    </g>
</svg>